<svg width="120" height="90" viewBox="0 0 120 90" fill="none" xmlns="http://www.w3.org/2000/svg">
<path d="M21.72 52.9899C22.095 54.3949 22.695 54.9399 23.755 54.9399C24.855 54.9399 25.43 54.2799 25.43 52.9899V29.0199H32.325V52.9899C32.325 56.3649 31.885 57.8299 30.175 59.5399C28.94 60.7799 26.66 61.7349 23.785 61.7349C21.465 61.7349 19.24 60.9649 17.825 59.5449C16.58 58.2949 15.895 57.0199 14.83 52.9899L10.6 37.0099C10.23 35.6049 9.63 35.0599 8.57 35.0599C7.47 35.0599 6.89 35.7199 6.89 37.0099V60.9799H0V37.0099C0 33.6349 0.44 32.1699 2.15 30.4599C3.385 29.2199 5.665 28.2649 8.54 28.2649C10.86 28.2649 13.085 29.0349 14.5 30.4549C15.745 31.7049 16.425 32.9799 17.495 37.0099L21.72 52.9899ZM112.875 60.9799L104.92 36.0799C104.86 35.844 104.758 35.6206 104.62 35.4199C104.508 35.2837 104.365 35.1756 104.204 35.1044C104.042 35.0332 103.866 35.0009 103.69 35.0099C103.515 35.0016 103.34 35.0344 103.179 35.1056C103.018 35.1768 102.877 35.2844 102.765 35.4199C102.627 35.6205 102.525 35.844 102.465 36.0799L94.51 60.9799H87.385L96.08 33.7799C96.53 32.3649 97.18 31.1599 98 30.3599C99.41 28.9849 101.07 28.2649 103.69 28.2649C106.315 28.2649 107.975 28.9849 109.385 30.3649C110.205 31.1649 110.855 32.3649 111.305 33.7799L120 60.9799H112.875ZM77.655 60.9799C82.17 60.9799 84.375 60.0199 86.115 58.2899C88.04 56.3749 88.96 54.2799 88.96 51.1549C88.96 48.3899 87.95 45.8349 86.41 44.3049C84.395 42.3049 81.895 41.6699 77.815 41.6699H72.105C69.925 41.6699 69.055 41.4049 68.365 40.7299C67.895 40.2649 67.67 39.5799 67.67 38.7649C67.67 37.9249 67.87 37.0949 68.45 36.5249C68.965 36.0249 69.665 35.7899 71.005 35.7899H87.51V29.0199H72.265C67.75 29.0199 65.55 29.9799 63.81 31.7099C61.885 33.6249 60.96 35.7199 60.96 38.8449C60.96 41.6099 61.975 44.1649 63.51 45.6949C65.53 47.6949 68.03 48.3299 72.11 48.3299H77.815C80 48.3299 80.865 48.5949 81.555 49.2699C82.03 49.7349 82.255 50.4199 82.255 51.2349C82.255 52.0799 82.05 52.9099 81.47 53.4749C80.96 53.9749 80.26 54.2099 78.92 54.2099H61.895L55.365 33.7799C54.915 32.3649 54.265 31.1599 53.445 30.3599C52.035 28.9849 50.37 28.2649 47.75 28.2649C45.13 28.2649 43.465 28.9849 42.06 30.3649C41.235 31.1649 40.59 32.3649 40.135 33.7799L31.445 60.9799H38.565L46.525 36.0799C46.5855 35.844 46.687 35.6206 46.825 35.4199C46.9367 35.2844 47.0785 35.1768 47.239 35.1056C47.3996 35.0344 47.5746 35.0016 47.75 35.0099C48.16 35.0099 48.46 35.1499 48.68 35.4199C48.8181 35.6205 48.9197 35.8439 48.98 36.0799L56.935 60.9799H77.655Z" fill="#FF342B"/>
</svg>
